<svg xmlns="http://www.w3.org/2000/svg" xml:space="preserve" width="24" height="24">
<path d="M17.77 18.35h-5.05a.63.63 0 0 1-.65-.64v-5.1c0-.37.28-.65.65-.65h5.05c.37 0 .65.28.65.64v5.1c0 .37-.3.65-.65.65m-4.7-1h4.35v-4.4h-4.35zM15.34 8.49a2.7 2.7 0 0 0-2.67 2.67v.3h1v-.3c0-.73.5-1.67 1.67-1.67 1.07 0 1.68.96 1.68 1.67v.3h1v-.3a2.7 2.7 0 0 0-2.68-2.67"/><path d="M17.28 2.99H6.72A3.7 3.7 0 0 0 3 6.72v4.89a3.7 3.7 0 0 0 3.72 3.72h.6V17a.75.75 0 0 0 .74.74q.3 0 .52-.22l2.21-2.19h.23v-1h-.18q-.32 0-.53.23l-2 1.96v-1.21c0-.42.1-.98-.32-.98H6.72c-1.24 0-2.72-1.5-2.72-2.75V6.72c0-1.25 1.48-2.73 2.72-2.73h10.56c1.24 0 2.72 1.48 2.72 2.73v5.68c0 1.28-.54 1.04-.64 1.29v1c1.15 0 1.64-1.02 1.64-2.29V6.72a3.7 3.7 0 0 0-3.72-3.73"/>
</svg>